<svg width="60" height="60" viewBox="0 0 60 60" fill="none" xmlns="http://www.w3.org/2000/svg">
<rect width="60" height="60" rx="8" fill="#073E74"/>
<path d="M45 29.985C45 21.7125 38.28 15 30 15C21.72 15 15 21.7125 15 29.985C15 34.5413 17.07 38.6475 20.31 41.4037C20.34 41.4338 20.37 41.4338 20.37 41.4638C20.64 41.6737 20.91 41.8837 21.21 42.0938C21.36 42.1838 21.48 42.3019 21.63 42.4219C24.1099 44.1005 27.0354 44.9984 30.03 45C33.0246 44.9984 35.9501 44.1005 38.43 42.4219C38.58 42.3319 38.7 42.2138 38.85 42.1219C39.12 41.9137 39.42 41.7038 39.69 41.4937C39.72 41.4638 39.75 41.4637 39.75 41.4338C42.93 38.6456 45 34.5413 45 29.985ZM30 43.1119C27.18 43.1119 24.6 42.2119 22.47 40.7137C22.5 40.4737 22.56 40.2356 22.62 39.9956C22.7994 39.3454 23.0615 38.7209 23.4 38.1375C23.73 37.5675 24.12 37.0575 24.6 36.6075C25.05 36.1575 25.59 35.7394 26.13 35.4094C26.7 35.0794 27.3 34.8394 27.96 34.6594C28.6253 34.4812 29.3112 34.391 30 34.3913C32.0452 34.3758 34.0154 35.1604 35.49 36.5775C36.18 37.2675 36.72 38.0769 37.11 39.0056C37.32 39.5456 37.47 40.115 37.56 40.7137C35.346 42.2703 32.7064 43.1076 30 43.1119ZM25.41 29.2369C25.1462 28.6315 25.0133 27.9772 25.02 27.3169C25.02 26.6587 25.14 25.9987 25.41 25.3988C25.68 24.7987 26.04 24.2606 26.49 23.8106C26.94 23.3606 27.48 23.0025 28.08 22.7325C28.68 22.4625 29.34 22.3425 30 22.3425C30.69 22.3425 31.32 22.4625 31.92 22.7325C32.52 23.0025 33.06 23.3625 33.51 23.8106C33.96 24.2606 34.32 24.8006 34.59 25.3988C34.86 25.9987 34.98 26.6587 34.98 27.3169C34.98 28.0069 34.86 28.6369 34.59 29.235C34.3309 29.8269 33.9648 30.366 33.51 30.825C33.0508 31.2791 32.5118 31.6446 31.92 31.9031C30.6801 32.4116 29.2899 32.4116 28.05 31.9031C27.4582 31.6446 26.9192 31.2791 26.46 30.825C26.0048 30.3725 25.6475 29.8332 25.41 29.2369ZM39.33 39.1856C39.33 39.1256 39.3 39.0956 39.3 39.0356C39.0055 38.0968 38.5706 37.208 38.01 36.3994C37.449 35.5848 36.7601 34.8662 35.97 34.2712C35.3664 33.817 34.712 33.4344 34.02 33.1313C34.3333 32.9216 34.6248 32.681 34.89 32.4131C35.3373 31.9716 35.7301 31.4781 36.06 30.9431C36.7267 29.8525 37.07 28.595 37.05 27.3169C37.0598 26.3709 36.876 25.4329 36.51 24.5606C36.1491 23.72 35.6296 22.9567 34.98 22.3125C34.3298 21.677 33.5667 21.1683 32.73 20.8125C31.8564 20.4466 30.9171 20.2635 29.97 20.2744C29.0228 20.2641 28.0835 20.4478 27.21 20.8144C26.3641 21.1658 25.5985 21.6857 24.96 22.3425C24.3212 22.9893 23.812 23.7524 23.46 24.5906C23.094 25.4629 22.9102 26.4009 22.92 27.3469C22.92 28.0069 23.01 28.6362 23.19 29.235C23.37 29.865 23.61 30.435 23.94 30.9731C24.24 31.5131 24.66 31.9931 25.11 32.4431C25.38 32.7131 25.68 32.9525 26.01 33.1612C25.3149 33.4707 24.6601 33.8636 24.06 34.3313C23.28 34.9313 22.59 35.6494 22.02 36.4294C21.4543 37.2349 21.0189 38.1246 20.73 39.0656C20.7 39.1256 20.7 39.1856 20.7 39.2156C18.33 36.8175 16.86 33.5812 16.86 29.985C16.86 22.7625 22.77 16.8581 30 16.8581C37.23 16.8581 43.14 22.7625 43.14 29.985C43.1361 33.4349 41.7662 36.7429 39.33 39.1856Z" fill="white"/>
</svg>
