<svg width="28" height="28" viewBox="0 0 28 28" fill="none" xmlns="http://www.w3.org/2000/svg">
<path d="M14 5.43659C13.2144 5.43659 12.4587 5.5376 11.7329 5.73962C11.0071 5.94164 10.3225 6.2297 9.67901 6.60382C9.03554 6.97793 8.45941 7.42312 7.95062 7.93939C7.44183 8.45567 6.99663 9.03554 6.61504 9.67901C6.23345 10.3225 5.94538 11.0034 5.75084 11.7217C5.5563 12.44 5.45155 13.1994 5.43659 14C5.43659 14.7856 5.5376 15.5413 5.73962 16.2671C5.94164 16.9929 6.2297 17.6775 6.60382 18.321C6.97793 18.9645 7.42312 19.5406 7.93939 20.0494C8.45567 20.5582 9.03554 21.0034 9.67901 21.385C10.3225 21.7666 11.0034 22.0546 11.7217 22.2492C12.44 22.4437 13.1994 22.5484 14 22.5634C14.7856 22.5634 15.5413 22.4624 16.2671 22.2604C16.9929 22.0584 17.6775 21.7703 18.321 21.3962C18.9645 21.0221 19.5406 20.5769 20.0494 20.0606C20.5582 19.5443 21.0034 18.9645 21.385 18.321C21.7666 17.6775 22.0546 16.9966 22.2492 16.2783C22.4437 15.56 22.5484 14.8006 22.5634 14C22.5634 13.2144 22.4624 12.4587 22.2604 11.7329C22.0584 11.0071 21.7703 10.3262 21.3962 9.69024C21.0221 9.05425 20.5731 8.47437 20.0494 7.95062C19.5256 7.42686 18.9495 6.98167 18.321 6.61504C17.6925 6.24841 17.0116 5.96034 16.2783 5.75084C15.5451 5.54134 14.7856 5.43659 14 5.43659ZM14 4C14.9203 4 15.8032 4.11972 16.6487 4.35915C17.4942 4.59858 18.2911 4.93528 19.0393 5.36925C19.7875 5.80322 20.4609 6.32323 21.0595 6.92929C21.6581 7.53535 22.1818 8.2125 22.6308 8.96072C23.0797 9.70894 23.4164 10.5021 23.6409 11.3401C23.8653 12.1781 23.985 13.0647 24 14C24 14.9203 23.8803 15.8032 23.6409 16.6487C23.4014 17.4942 23.0647 18.2911 22.6308 19.0393C22.1968 19.7875 21.6768 20.4609 21.0707 21.0595C20.4646 21.6581 19.7875 22.1818 19.0393 22.6308C18.2911 23.0797 17.4979 23.4164 16.6599 23.6409C15.8219 23.8653 14.9353 23.985 14 24C13.0797 24 12.1968 23.8803 11.3513 23.6409C10.5058 23.4014 9.70894 23.0647 8.96072 22.6308C8.2125 22.1968 7.53909 21.6768 6.94052 21.0707C6.34194 20.4646 5.81818 19.7875 5.36925 19.0393C4.92031 18.2911 4.58361 17.4979 4.35915 16.6599C4.13468 15.8219 4.01496 14.9353 4 14C4 13.0797 4.11972 12.1968 4.35915 11.3513C4.59858 10.5058 4.93528 9.70894 5.36925 8.96072C5.80322 8.2125 6.32323 7.53909 6.92929 6.94052C7.53535 6.34194 8.2125 5.81818 8.96072 5.36925C9.70894 4.92031 10.5021 4.58361 11.3401 4.35915C12.1781 4.13468 13.0647 4.01496 14 4ZM13.0123 19.2301L12.0022 18.22L16.1549 14.0561L12.0022 9.89226L13.0123 8.88215L18.1863 14.0561L13.0123 19.2301Z" fill="white"/>
</svg>
