<svg width="40" height="40" viewBox="0 0 40 40" fill="none" xmlns="http://www.w3.org/2000/svg">
<path d="M29.4669 13.0325C29.6336 12.8711 29.7665 12.6781 29.8581 12.4646C29.9496 12.2512 29.9978 12.0216 29.9999 11.7892C30.002 11.5569 29.958 11.3264 29.8704 11.1114C29.7828 10.8963 29.6534 10.7008 29.4897 10.5364C29.326 10.3721 29.1312 10.242 28.9169 10.154C28.7026 10.0659 28.4729 10.0215 28.2413 10.0234C28.0096 10.0253 27.7807 10.0735 27.5679 10.1651C27.355 10.2567 27.1624 10.3899 27.0014 10.5569L20.0099 17.5681L13.0206 10.5569C12.8609 10.385 12.6683 10.2471 12.4544 10.1515C12.2404 10.0558 12.0094 10.0044 11.7752 10.0003C11.541 9.99613 11.3083 10.0393 11.0911 10.1274C10.8739 10.2154 10.6766 10.3464 10.5109 10.5125C10.3453 10.6787 10.2147 10.8766 10.127 11.0945C10.0392 11.3124 9.99614 11.5458 10.0003 11.7808C10.0044 12.0157 10.0557 12.2474 10.151 12.4621C10.2464 12.6767 10.3838 12.8699 10.5552 13.0301L17.5398 20.0436L10.5506 27.0548C10.2424 27.3866 10.0747 27.8253 10.0826 28.2787C10.0906 28.732 10.2737 29.1645 10.5933 29.4851C10.9129 29.8057 11.3441 29.9894 11.796 29.9974C12.2479 30.0054 12.6853 29.8371 13.016 29.528L20.0099 22.5168L26.9991 29.5303C27.3298 29.8394 27.7672 30.0077 28.2191 29.9997C28.671 29.9917 29.1022 29.8081 29.4218 29.4875C29.7414 29.1669 29.9245 28.7343 29.9325 28.281C29.9404 27.8276 29.7727 27.3889 29.4645 27.0572L22.48 20.0436L29.4669 13.0325Z" fill="black"/>
</svg>
