<svg width="60" height="60" viewBox="0 0 60 60" fill="none" xmlns="http://www.w3.org/2000/svg">
<rect width="60" height="60" rx="8" fill="#96BF47"/>
<rect x="0.75" y="0.75" width="58.5" height="58.5" rx="7.25" stroke="#96BF47" stroke-width="1.5"/>
<path d="M15 18.75C15 16.6816 16.6816 15 18.75 15H28.125V22.5C28.125 23.5371 28.9629 24.375 30 24.375H37.5V32.8125H25.3125C23.2441 32.8125 21.5625 34.4941 21.5625 36.5625V45H18.75C16.6816 45 15 43.3184 15 41.25V18.75ZM37.5 22.5H30V15L37.5 22.5ZM26.7188 35.625H27.6562C28.9512 35.625 30 36.6738 30 37.9688V38.4375C30 38.9531 29.5781 39.375 29.0625 39.375C28.5469 39.375 28.125 38.9531 28.125 38.4375V37.9688C28.125 37.7109 27.9141 37.5 27.6562 37.5H26.7188C26.4609 37.5 26.25 37.7109 26.25 37.9688V42.6562C26.25 42.9141 26.4609 43.125 26.7188 43.125H27.6562C27.9141 43.125 28.125 42.9141 28.125 42.6562V42.1875C28.125 41.6719 28.5469 41.25 29.0625 41.25C29.5781 41.25 30 41.6719 30 42.1875V42.6562C30 43.9512 28.9512 45 27.6562 45H26.7188C25.4238 45 24.375 43.9512 24.375 42.6562V37.9688C24.375 36.6738 25.4238 35.625 26.7188 35.625ZM34.5176 35.625H36.5625C37.0781 35.625 37.5 36.0469 37.5 36.5625C37.5 37.0781 37.0781 37.5 36.5625 37.5H34.5176C34.0957 37.5 33.75 37.8457 33.75 38.2676C33.75 38.5723 33.9258 38.8477 34.207 38.9707L36.3984 39.9434C37.3535 40.3652 37.9688 41.3145 37.9688 42.3574C37.9688 43.8164 36.7852 45 35.3262 45H32.8125C32.2969 45 31.875 44.5781 31.875 44.0625C31.875 43.5469 32.2969 43.125 32.8125 43.125H35.3262C35.748 43.125 36.0938 42.7793 36.0938 42.3574C36.0938 42.0527 35.918 41.7773 35.6367 41.6543L33.4453 40.6816C32.4902 40.2598 31.875 39.3105 31.875 38.2676C31.875 36.8086 33.0586 35.625 34.5176 35.625ZM40.3125 35.625C40.8281 35.625 41.25 36.0469 41.25 36.5625V38.4141C41.25 39.7617 41.5723 41.0859 42.1875 42.2812C42.8027 41.0918 43.125 39.7676 43.125 38.4141V36.5625C43.125 36.0469 43.5469 35.625 44.0625 35.625C44.5781 35.625 45 36.0469 45 36.5625V38.4141C45 40.4473 44.3965 42.4395 43.2656 44.1328L42.9668 44.584C42.791 44.8477 42.498 45 42.1875 45C41.877 45 41.584 44.8418 41.4082 44.584L41.1094 44.1328C39.9785 42.4395 39.375 40.4473 39.375 38.4141V36.5625C39.375 36.0469 39.7969 35.625 40.3125 35.625Z" fill="#073E74"/>
</svg>
