<svg width="20" height="20" viewBox="0 0 20 20" fill="none" xmlns="http://www.w3.org/2000/svg">
<path d="M0 2.5C0 1.12109 1.12109 0 2.5 0H8.75V5C8.75 5.69141 9.30859 6.25 10 6.25H15V11.875H6.875C5.49609 11.875 4.375 12.9961 4.375 14.375V20H2.5C1.12109 20 0 18.8789 0 17.5V2.5ZM15 5H10V0L15 5ZM7.8125 13.75H8.4375C9.30078 13.75 10 14.4492 10 15.3125V15.625C10 15.9688 9.71875 16.25 9.375 16.25C9.03125 16.25 8.75 15.9688 8.75 15.625V15.3125C8.75 15.1406 8.60938 15 8.4375 15H7.8125C7.64062 15 7.5 15.1406 7.5 15.3125V18.4375C7.5 18.6094 7.64062 18.75 7.8125 18.75H8.4375C8.60938 18.75 8.75 18.6094 8.75 18.4375V18.125C8.75 17.7812 9.03125 17.5 9.375 17.5C9.71875 17.5 10 17.7812 10 18.125V18.4375C10 19.3008 9.30078 20 8.4375 20H7.8125C6.94922 20 6.25 19.3008 6.25 18.4375V15.3125C6.25 14.4492 6.94922 13.75 7.8125 13.75ZM13.0117 13.75H14.375C14.7188 13.75 15 14.0312 15 14.375C15 14.7188 14.7188 15 14.375 15H13.0117C12.7305 15 12.5 15.2305 12.5 15.5117C12.5 15.7148 12.6172 15.8984 12.8047 15.9805L14.2656 16.6289C14.9023 16.9102 15.3125 17.543 15.3125 18.2383C15.3125 19.2109 14.5234 20 13.5508 20H11.875C11.5312 20 11.25 19.7188 11.25 19.375C11.25 19.0312 11.5312 18.75 11.875 18.75H13.5508C13.832 18.75 14.0625 18.5195 14.0625 18.2383C14.0625 18.0352 13.9453 17.8516 13.7578 17.7695L12.2969 17.1211C11.6602 16.8398 11.25 16.207 11.25 15.5117C11.25 14.5391 12.0391 13.75 13.0117 13.75ZM16.875 13.75C17.2188 13.75 17.5 14.0312 17.5 14.375V15.6094C17.5 16.5078 17.7148 17.3906 18.125 18.1875C18.5352 17.3945 18.75 16.5117 18.75 15.6094V14.375C18.75 14.0312 19.0312 13.75 19.375 13.75C19.7188 13.75 20 14.0312 20 14.375V15.6094C20 16.9648 19.5977 18.293 18.8438 19.4219L18.6445 19.7227C18.5273 19.8984 18.332 20 18.125 20C17.918 20 17.7227 19.8945 17.6055 19.7227L17.4062 19.4219C16.6523 18.293 16.25 16.9648 16.25 15.6094V14.375C16.25 14.0312 16.5312 13.75 16.875 13.75Z" fill="white"/>
</svg>
