<svg width="48" height="48" viewBox="0 0 48 48" fill="none" xmlns="http://www.w3.org/2000/svg">
<rect width="48" height="48" rx="8" fill="#073E74"/>
<path d="M28.4245 12.5007C28.4245 12.5007 28.0849 12.6007 27.5075 12.784C27.4057 12.484 27.2698 12.1007 27.066 11.734C26.4208 10.5174 25.4698 9.88409 24.3151 9.86742C24.2302 9.86742 24.1623 9.86742 24.0774 9.88409C24.0434 9.85076 24.0094 9.80076 23.9755 9.76743C23.483 9.23411 22.8377 8.98411 22.0736 9.00078C20.5962 9.05078 19.1189 10.1008 17.9132 11.9674C17.0642 13.284 16.4358 14.934 16.2491 16.2006C14.5509 16.7172 13.3623 17.0839 13.3283 17.0839C12.4623 17.3506 12.4453 17.3839 12.3264 18.1672C12.2415 18.7672 10 35.8334 10 35.8334L28.6453 39V12.4674C28.5604 12.4674 28.4755 12.484 28.4245 12.5007ZM24.1113 13.8173C23.1264 14.1173 22.0396 14.4506 20.9698 14.7673C21.2755 13.6173 21.8528 12.484 22.566 11.734C22.8377 11.4507 23.1943 11.1507 23.6358 10.9674C24.0434 11.8174 24.1283 13.0007 24.1113 13.8173ZM22.0906 9.96742C22.4302 9.96742 22.7358 10.0341 22.9906 10.2007C22.583 10.4007 22.2094 10.7007 21.8358 11.0841C20.9019 12.0674 20.1717 13.6173 19.883 15.1006C18.983 15.3673 18.117 15.6339 17.3019 15.8839C17.8113 13.534 19.8151 10.0341 22.0906 9.96742ZM19.2038 23.2837C19.3057 24.8337 23.483 25.1837 23.7208 28.8336C23.9075 31.7002 22.1755 33.6668 19.6623 33.8168C16.6736 34.0001 15.0094 32.2668 15.0094 32.2668L15.6377 29.6169C15.6377 29.6169 17.3019 30.8502 18.6264 30.7669C19.4925 30.7169 19.7981 30.0169 19.7811 29.5336C19.6453 27.5003 16.2491 27.617 16.0453 24.2837C15.8585 21.4671 17.7434 18.6339 21.8868 18.3672C23.5 18.2672 24.3151 18.6672 24.3151 18.6672L23.3642 22.1504C23.3642 22.1504 22.3113 21.6838 21.0547 21.7504C19.2208 21.8671 19.1868 23.0004 19.2038 23.2837ZM25.0962 13.5173C25.0792 12.784 24.9943 11.7507 24.6377 10.8674C25.7585 11.0841 26.3189 12.3174 26.5566 13.0673C26.1321 13.2007 25.6396 13.3507 25.0962 13.5173ZM29.2566 38.9333L37 37.0501C37 37.0501 33.6717 14.9506 33.6547 14.8006C33.6377 14.6506 33.5019 14.5673 33.383 14.5506C33.2642 14.534 31.0906 14.5006 31.0906 14.5006C31.0906 14.5006 29.766 13.234 29.2566 12.7507V38.9333Z" fill="white"/>
</svg>
