<svg width="18" height="20" viewBox="0 0 18 20" fill="none" xmlns="http://www.w3.org/2000/svg">
<path d="M15.925 1.13699C15.6438 0.85565 15.3099 0.632485 14.9424 0.480258C14.575 0.32803 14.1811 0.249724 13.7833 0.249817C13.3855 0.24991 12.9917 0.3284 12.6243 0.480799C12.2568 0.633198 11.9231 0.856519 11.642 1.13799L2.135 10.658C1.56853 11.2258 1.25028 11.995 1.25 12.797V16C1.25 16.414 1.586 16.75 2 16.75H5.223C6.026 16.75 6.796 16.43 7.363 15.863L16.863 6.35699C17.4297 5.78897 17.7479 5.01936 17.7479 4.21699C17.7479 3.41463 17.4297 2.64502 16.863 2.07699L15.925 1.13699ZM1 18.25C0.801088 18.25 0.610322 18.329 0.46967 18.4697C0.329018 18.6103 0.25 18.8011 0.25 19C0.25 19.1989 0.329018 19.3897 0.46967 19.5303C0.610322 19.671 0.801088 19.75 1 19.75H17C17.1989 19.75 17.3897 19.671 17.5303 19.5303C17.671 19.3897 17.75 19.1989 17.75 19C17.75 18.8011 17.671 18.6103 17.5303 18.4697C17.3897 18.329 17.1989 18.25 17 18.25H1Z" fill="#878787"/>
</svg>
