<svg width="48" height="48" viewBox="0 0 48 48" fill="none" xmlns="http://www.w3.org/2000/svg">
<rect width="48" height="48" rx="8" fill="#073E74"/>
<path d="M9.02686 18.6311C9.33984 18.4433 9.60812 18.2734 9.88534 18.1124C12.3714 16.6459 14.8663 15.1882 17.3345 13.7038C18.2198 13.1672 19.0514 13.1672 19.9368 13.6948C22.5927 15.2866 25.2665 16.8515 27.9314 18.4254C28.0298 18.4791 28.1192 18.5417 28.2444 18.6222C28.1281 18.6937 28.0476 18.7563 27.9493 18.81C24.9446 20.4822 21.9309 22.1545 18.9263 23.8267C18.7206 23.943 18.5686 23.9519 18.3539 23.8357C15.3582 22.1634 12.3624 20.5001 9.35773 18.8278C9.2683 18.7831 9.16994 18.7205 9.02686 18.6311Z" fill="white"/>
<path d="M9 19.731C9.1252 19.7936 9.21462 19.8294 9.2951 19.8741C12.1478 21.4838 15.0004 23.1024 17.8531 24.7031C18.032 24.8015 18.1035 24.8998 18.1035 25.1145C18.0946 28.2175 18.0946 31.3206 18.0946 34.4147C18.0946 34.4862 18.0856 34.5667 18.0767 34.683C17.558 34.3789 17.0662 34.0928 16.5833 33.8066C14.4371 32.5457 12.2998 31.2848 10.1536 30.0239C9.38453 29.5768 9 28.9061 9 28.0029C9 25.347 9 22.691 9 20.0351C9 19.9457 9 19.8562 9 19.731Z" fill="white"/>
<path d="M28.2801 19.731C28.2801 19.8831 28.2801 19.9904 28.2801 20.0977C28.2801 22.7089 28.2712 25.3201 28.2801 27.9314C28.2891 28.8972 27.8867 29.5947 27.064 30.0776C24.5332 31.5531 22.0114 33.0465 19.4807 34.531C19.4002 34.5846 19.3108 34.6204 19.1945 34.683C19.1856 34.5578 19.1766 34.4594 19.1766 34.37C19.1766 31.3027 19.1766 28.2354 19.1766 25.1681C19.1766 24.9803 19.1945 24.8462 19.3913 24.7389C22.2797 23.1203 25.1592 21.4927 28.0387 19.8652C28.1013 19.8115 28.1728 19.7847 28.2801 19.731Z" fill="white"/>
<path d="M32.5637 36.8471C30.8109 36.8471 29.1208 36.8381 27.4217 36.856C27.0372 36.856 26.7063 36.7487 26.4022 36.5162C25.3113 35.6846 24.2113 34.8708 23.1114 34.0481C23.022 33.9855 22.9415 33.9139 22.8163 33.8156C23.4601 33.431 24.0772 33.0644 24.7032 32.7156C24.7658 32.6799 24.9088 32.7425 24.9893 32.7961C25.7763 33.3774 26.5632 33.9765 27.3502 34.5578C27.4575 34.6383 27.6095 34.7098 27.7347 34.7188C29.2996 34.7277 30.8556 34.7277 32.4206 34.7277C32.4563 34.7277 32.4832 34.7188 32.5637 34.7009C32.5637 34.3879 32.5637 34.066 32.5637 33.744C32.5726 33.0107 33.0018 32.5815 33.7351 32.5815C35.0944 32.5815 36.4537 32.5815 37.8219 32.5815C38.5552 32.5815 38.9933 33.0197 38.9933 33.744C38.9933 35.1122 38.9933 36.4894 38.9933 37.8576C38.9933 38.5641 38.5552 39.0022 37.8398 39.0022C36.4715 39.0022 35.0944 39.0022 33.7262 39.0022C33.0197 39.0022 32.5815 38.5641 32.5726 37.8576C32.5637 37.5267 32.5637 37.2048 32.5637 36.8471ZM36.8471 35.7561C36.8382 35.1748 36.3553 34.7009 35.7651 34.7009C35.1838 34.7009 34.7009 35.1838 34.7009 35.774C34.7009 36.3642 35.2017 36.856 35.7919 36.8471C36.3821 36.8381 36.8561 36.3374 36.8471 35.7561Z" fill="white"/>
<path d="M22.8252 14.1688C23.2008 13.8826 23.5406 13.6322 23.8715 13.3729C24.721 12.738 25.5706 12.112 26.4112 11.4681C26.7063 11.2446 27.0192 11.1373 27.4038 11.1373C29.1118 11.1462 30.8109 11.1373 32.5636 11.1373C32.5636 10.8064 32.5636 10.4845 32.5636 10.1715C32.5726 9.43818 32.9929 9 33.7262 9C35.0944 9 36.4715 9 37.8397 9C38.5462 9 38.9844 9.43818 38.9933 10.1446C38.9933 11.5307 39.0023 12.9079 38.9933 14.294C38.9933 14.9826 38.5462 15.4207 37.8576 15.4207C36.4715 15.4297 35.0944 15.4297 33.7083 15.4207C33.0108 15.4207 32.5726 14.9736 32.5636 14.2582C32.5636 13.9452 32.5636 13.6322 32.5636 13.2924C32.4384 13.2835 32.3311 13.2745 32.2238 13.2745C30.7662 13.2745 29.2996 13.2656 27.842 13.2835C27.6721 13.2835 27.4753 13.355 27.3322 13.4623C26.5632 14.0168 25.8031 14.5891 25.0608 15.1614C24.8909 15.2956 24.7568 15.3224 24.56 15.1972C24.0056 14.8574 23.4333 14.5354 22.8252 14.1688ZM36.8471 12.2104C36.8471 11.6291 36.3642 11.1462 35.7829 11.1462C35.2017 11.1462 34.7188 11.6202 34.7098 12.2014C34.7009 12.7916 35.1927 13.2924 35.7919 13.2835C36.3642 13.2745 36.8471 12.7916 36.8471 12.2104Z" fill="white"/>
<path d="M32.5636 25.0698C31.4815 25.0698 30.4442 25.0698 29.3711 25.0698C29.3711 24.3544 29.3711 23.6568 29.3711 22.9235C30.4263 22.9235 31.4726 22.9235 32.5636 22.9235C32.5636 22.5569 32.5636 22.226 32.5636 21.8952C32.5725 21.2245 33.0107 20.7863 33.6814 20.7773C35.0764 20.7684 36.4715 20.7684 37.8665 20.7773C38.5461 20.7773 38.9933 21.2245 38.9933 21.913C39.0022 23.2991 39.0022 24.6763 38.9933 26.0624C38.9933 26.751 38.5461 27.1981 37.8665 27.1981C36.4715 27.207 35.0764 27.207 33.6814 27.1981C33.0197 27.1981 32.5725 26.742 32.5636 26.0803C32.5636 25.7673 32.5636 25.4453 32.5636 25.0698ZM36.8471 23.9967C36.8471 23.4154 36.3642 22.9325 35.7829 22.9325C35.2016 22.9325 34.7187 23.4064 34.7098 23.9877C34.7009 24.5779 35.1927 25.0787 35.7918 25.0698C36.3642 25.0608 36.8471 24.5779 36.8471 23.9967Z" fill="white"/>
</svg>
