<svg width="48" height="48" viewBox="0 0 48 48" fill="none" xmlns="http://www.w3.org/2000/svg">
<rect width="48" height="48" rx="8" fill="#073E74"/>
<path d="M39 11.2287C39 19.7398 39 28.2602 39 36.7713C38.9908 36.7988 38.9633 36.8264 38.9633 36.8539C38.789 38.0737 37.7431 39 36.4037 39C28.1284 39 19.8624 39 11.5872 38.9908C11.2018 38.9908 10.7798 38.8991 10.4312 38.734C9.43119 38.2571 9 37.4133 9 36.3219C9 30.0303 9 23.7478 9 17.4561C9 15.5118 9 13.5674 9 11.6322C9 10.9902 9.17431 10.4032 9.59633 9.89881C10.0275 9.3852 10.5872 9.13757 11.2294 9C19.7431 9 28.2661 9 36.7798 9C37.1835 9.17426 37.6239 9.29349 37.9908 9.52278C38.5963 9.90798 38.8624 10.5408 39 11.2287ZM29.2661 30.498C28.6697 29.9019 28.0826 29.3241 27.4495 28.6912C26.7339 29.4158 26 30.1495 25.2661 30.8924C25.2661 26.2975 25.2661 21.7025 25.2661 17.0984C25.2844 17.0801 25.3119 17.0709 25.3303 17.0526C26.0642 17.7955 26.7982 18.5384 27.4862 19.2354C28.0826 18.6393 28.6606 18.0706 29.2569 17.4745C29.2202 17.4378 29.1468 17.3828 29.0826 17.3277C27.7248 15.9795 26.3761 14.6221 25.0183 13.2739C24.3303 12.5861 23.6422 12.5861 22.9541 13.2739C21.6147 14.613 20.2569 15.9703 18.9083 17.3186C18.844 17.3828 18.7798 17.4561 18.7339 17.5112C19.3303 18.0981 19.9083 18.6759 20.5413 19.3088C21.2569 18.5842 22 17.8505 22.7339 17.1168C22.7339 21.7025 22.7339 26.3066 22.7339 31.0024C21.9358 30.1953 21.2018 29.4525 20.5046 28.7646C19.9083 29.3516 19.3303 29.9294 18.7339 30.5255C18.789 30.5714 18.8716 30.6448 18.9541 30.7181C20.2202 31.9838 21.4862 33.2403 22.7431 34.506C22.8624 34.6252 22.9725 34.7444 23.1009 34.8545C23.6605 35.3773 24.3578 35.3773 24.9083 34.8545C25.1101 34.671 25.2936 34.4693 25.4862 34.2767C26.7431 33.0202 28.0092 31.7545 29.2661 30.498Z" fill="white"/>
</svg>
