<svg width="60" height="60" viewBox="0 0 60 60" fill="none" xmlns="http://www.w3.org/2000/svg">
<rect x="0.75" y="0.75" width="58.5" height="58.5" rx="7.25" stroke="#96BF47" stroke-width="1.5"/>
<path d="M20.5549 45C18.5916 45 17 43.3667 17 41.3501V26.6803C17 25.572 17.4917 24.522 18.3333 23.8303L28.1115 15.8004C28.7363 15.2831 29.522 15 30.3331 15C31.1443 15 31.93 15.2831 32.5548 15.8004L42.3313 23.8303C43.1746 24.522 43.6663 25.572 43.6663 26.6803V41.3501C43.6663 43.3667 42.0746 45 40.1113 45H20.5549Z" stroke="#073E74" stroke-width="2" stroke-linecap="round" stroke-linejoin="round"/>
<path d="M26.1665 45V35.8335C26.1665 34.9494 26.5177 34.1016 27.1428 33.4765C27.7679 32.8514 28.6157 32.5002 29.4998 32.5002H31.1664C32.0505 32.5002 32.8983 32.8514 33.5234 33.4765C34.1485 34.1016 34.4997 34.9494 34.4997 35.8335V45" stroke="#073E74" stroke-width="2" stroke-linecap="round" stroke-linejoin="round"/>
</svg>
