<svg width="48" height="48" viewBox="0 0 48 48" fill="none" xmlns="http://www.w3.org/2000/svg">
<rect width="48" height="48" rx="8" fill="#073E74"/>
<path d="M33.8438 13.6875H14.1562C13.2863 13.6884 12.4522 14.0344 11.8371 14.6496C11.2219 15.2647 10.8759 16.0988 10.875 16.9688V31.0312C10.8759 31.9012 11.2219 32.7353 11.8371 33.3504C12.4522 33.9656 13.2863 34.3116 14.1562 34.3125H33.8438C34.7137 34.3116 35.5478 33.9656 36.1629 33.3504C36.7781 32.7353 37.1241 31.9012 37.125 31.0312V16.9688C37.1241 16.0988 36.7781 15.2647 36.1629 14.6496C35.5478 14.0344 34.7137 13.6884 33.8438 13.6875ZM33.0129 19.115L24.5754 25.6775C24.4109 25.8054 24.2084 25.8749 24 25.8749C23.7916 25.8749 23.5891 25.8054 23.4246 25.6775L14.9871 19.115C14.888 19.0402 14.8047 18.9464 14.7421 18.839C14.6796 18.7317 14.639 18.613 14.6227 18.4899C14.6064 18.3667 14.6147 18.2416 14.6472 18.1217C14.6797 18.0018 14.7357 17.8895 14.812 17.7915C14.8882 17.6934 14.9832 17.6114 15.0914 17.5504C15.1996 17.4894 15.3188 17.4504 15.4422 17.4359C15.5656 17.4213 15.6906 17.4314 15.81 17.4656C15.9295 17.4998 16.0409 17.5573 16.1379 17.635L24 23.7498L31.8621 17.635C32.0587 17.4865 32.3058 17.4214 32.5501 17.4537C32.7943 17.486 33.016 17.6132 33.1672 17.8077C33.3184 18.0021 33.387 18.2483 33.3581 18.493C33.3292 18.7376 33.2052 18.9611 33.0129 19.115Z" fill="white"/>
</svg>
