<svg width="60" height="60" viewBox="0 0 60 60" fill="none" xmlns="http://www.w3.org/2000/svg">
<rect width="60" height="60" rx="8" fill="#96BF47"/>
<rect x="0.75" y="0.75" width="58.5" height="58.5" rx="7.25" stroke="#96BF47" stroke-width="1.5"/>
<path fill-rule="evenodd" clip-rule="evenodd" d="M27.5323 16.1757C27.8784 16.1757 28.1589 16.4562 28.1589 16.8023V28.708C28.1589 29.054 27.8784 29.3346 27.5323 29.3346H15.6266C15.2805 29.3346 15 29.054 15 28.708V16.8023C15 16.4562 15.2805 16.1757 15.6266 16.1757H27.5323ZM25.4958 18.8388H17.6631V26.6715H25.4958V18.8388ZM44.8165 22.2729C45.0612 22.5176 45.0612 22.9143 44.8165 23.159L37.7271 30.2484C37.4824 30.4931 37.0857 30.4931 36.8409 30.2484L29.7516 23.159C29.5069 22.9143 29.5069 22.5176 29.7516 22.2729L36.841 15.1835C37.0857 14.9388 37.4824 14.9388 37.7271 15.1835L44.8165 22.2729ZM41.4933 22.7159L37.284 18.5067L33.0747 22.716L37.284 26.9253L41.4933 22.7159ZM27.5323 31.8411C27.8784 31.8411 28.1589 32.1216 28.1589 32.4677V44.3734C28.1589 44.7195 27.8784 45 27.5323 45H15.6266C15.2805 45 15 44.7195 15 44.3734V32.4677C15 32.1216 15.2805 31.8411 15.6266 31.8411H27.5323ZM25.4958 34.5042H17.6631V42.3369H25.4958V34.5042ZM43.1977 31.8411C43.5438 31.8411 43.8244 32.1216 43.8244 32.4677V44.3734C43.8244 44.7195 43.5438 45 43.1977 45H31.292C30.9459 45 30.6654 44.7195 30.6654 44.3734V32.4677C30.6654 32.1216 30.9459 31.8411 31.292 31.8411H43.1977ZM41.1612 34.5042H33.3285V42.3369H41.1612V34.5042Z" fill="#073E74"/>
</svg>
