<svg width="48" height="48" viewBox="0 0 48 48" fill="none" xmlns="http://www.w3.org/2000/svg">
<rect width="48" height="48" rx="8" fill="#073E74"/>
<path d="M23.3435 12C21.5228 12.0001 19.7288 12.4378 18.1131 13.2761C16.4975 14.1144 15.1077 15.3286 14.0612 16.8162C13.0146 18.3038 12.3421 20.021 12.1004 21.8229C11.8587 23.6247 12.0549 25.4581 12.6725 27.1682C13.2901 28.8783 14.3109 30.4149 15.6487 31.6481C16.9864 32.8813 18.6018 33.7749 20.3584 34.2534C22.1149 34.7319 23.9611 34.7812 25.7407 34.3972C27.5204 34.0131 29.1813 33.2071 30.5832 32.047L34.2656 35.7236C34.4611 35.9055 34.7197 36.0045 34.9869 35.9998C35.2541 35.9951 35.509 35.8871 35.6979 35.6984C35.8869 35.5098 35.9951 35.2552 35.9998 34.9885C36.0046 34.7217 35.9054 34.4636 35.7232 34.2684L32.0449 30.5945C33.4298 28.9419 34.3138 26.9292 34.5932 24.7926C34.8725 22.656 34.5357 20.4842 33.6222 18.532C32.7086 16.5798 31.2563 14.9283 29.4357 13.7713C27.6151 12.6143 25.5017 11.9998 23.3435 12Z" fill="white"/>
</svg>
