<svg width="48" height="48" viewBox="0 0 48 48" fill="none" xmlns="http://www.w3.org/2000/svg">
<rect width="48" height="48" rx="8" fill="#073E74"/>
<path d="M23.3707 9C23.7915 9 24.2123 9 24.6331 9C24.8473 9.03914 25.0616 9.07829 25.2758 9.11743C28.4126 9.63413 31.0063 12.429 31.2664 15.6623C31.3735 17.0324 31.3123 18.4102 31.3352 19.7881C31.3352 19.929 31.3352 20.0778 31.3352 20.25C31.6107 20.25 31.8555 20.25 32.1003 20.25C33.8294 20.25 35 21.4478 35 23.2015C35 27.476 35 31.7584 35 36.0329C35 37.7944 33.8294 38.9922 32.108 39C30.3865 39 28.6728 39 26.9513 39C23.2407 39 19.5223 39 15.8117 39C14.2586 39 13.0191 37.7944 13.0115 36.2443C12.9962 31.8288 12.9962 27.4134 13.0115 22.9979C13.0115 21.6592 13.9908 20.5162 15.2838 20.3048C15.7275 20.2343 16.1942 20.25 16.6762 20.2265C16.6762 20.1169 16.6762 20.0151 16.6762 19.9134C16.6762 18.7312 16.6686 17.5491 16.6762 16.3669C16.7145 13.2354 18.742 10.3857 21.6569 9.41493C22.2078 9.21921 22.7969 9.13309 23.3707 9ZM28.887 20.2422C28.887 19.2479 28.8946 18.285 28.887 17.322C28.8793 16.7584 28.8946 16.1868 28.8105 15.631C28.4279 13.024 25.8496 11.1216 23.3095 11.5522C20.8153 11.9749 19.1322 13.987 19.1245 16.5626C19.1168 17.6978 19.1245 18.8252 19.1245 19.9603C19.1245 20.0543 19.1322 20.1482 19.1398 20.2422C22.3914 20.2422 25.6124 20.2422 28.887 20.2422ZM23.9981 25.2526C22.9499 25.2604 22.0089 25.9572 21.6799 26.9828C21.3509 28.0005 21.6875 29.1044 22.5444 29.7385C22.728 29.8794 22.7893 30.0204 22.7893 30.2474C22.7816 31.0459 22.7816 31.8445 22.7893 32.6508C22.7893 32.8074 22.7969 32.964 22.8352 33.1127C22.9958 33.6921 23.562 34.0757 24.1205 34.0052C24.7479 33.9269 25.1993 33.4494 25.2146 32.8152C25.2299 31.9697 25.2299 31.1164 25.2146 30.2709C25.2146 30.036 25.2681 29.8873 25.4671 29.7385C26.3239 29.0966 26.6529 27.9927 26.3239 26.9749C25.9873 25.9415 25.0463 25.2448 23.9981 25.2526Z" fill="white"/>
</svg>
