<svg width="60" height="60" viewBox="0 0 60 60" fill="none" xmlns="http://www.w3.org/2000/svg">
<rect x="0.75" y="0.75" width="58.5" height="58.5" rx="7.25" stroke="#96BF47" stroke-width="1.5"/>
<path d="M33.446 15C33.671 15 33.8902 15.072 34.072 15.2056C34.2538 15.3393 34.3889 15.5276 34.4577 15.7436L35.6267 19.4057C36.1177 19.6479 36.5875 19.92 37.036 20.2264L40.7684 19.4164C40.9884 19.3691 41.2177 19.3933 41.4232 19.4858C41.6287 19.5782 41.7998 19.734 41.9119 19.9307L44.8578 25.0714C44.9703 25.268 45.018 25.4956 44.9939 25.7213C44.9698 25.947 44.8753 26.1591 44.7239 26.3271L42.1627 29.1771C42.2 29.7236 42.2 30.2721 42.1627 30.8186L44.7239 33.6729C44.8753 33.8409 44.9698 34.053 44.9939 34.2787C45.018 34.5044 44.9703 34.732 44.8578 34.9286L41.9119 40.0714C41.7995 40.2678 41.6283 40.4231 41.4228 40.5152C41.2173 40.6072 40.9882 40.6311 40.7684 40.5836L37.036 39.7736C36.5896 40.0779 36.1177 40.3521 35.6289 40.5943L34.4577 44.2564C34.3889 44.4724 34.2538 44.6607 34.072 44.7944C33.8902 44.928 33.671 45 33.446 45H27.554C27.329 45 27.1098 44.928 26.928 44.7944C26.7462 44.6607 26.6111 44.4724 26.5423 44.2564L25.3754 40.5964C24.8857 40.355 24.4134 40.0793 23.9619 39.7714L20.2317 40.5836C20.0116 40.6309 19.7823 40.6067 19.5768 40.5142C19.3713 40.4218 19.2002 40.266 19.0881 40.0693L16.1422 34.9286C16.0297 34.732 15.982 34.5044 16.0061 34.2787C16.0302 34.053 16.1247 33.8409 16.2761 33.6729L18.8373 30.8186C18.8002 30.2735 18.8002 29.7265 18.8373 29.1814L16.2761 26.3271C16.1247 26.1591 16.0302 25.947 16.0061 25.7213C15.982 25.4956 16.0297 25.268 16.1422 25.0714L19.0881 19.9286C19.2005 19.7322 19.3717 19.5769 19.5772 19.4848C19.7827 19.3928 20.0118 19.3689 20.2317 19.4164L23.9619 20.2286C24.4125 19.9221 24.8844 19.6457 25.3754 19.4036L26.5444 15.7436C26.613 15.5283 26.7475 15.3405 26.9284 15.2069C27.1094 15.0733 27.3276 15.0009 27.5519 15H33.4438H33.446ZM32.668 17.1429H28.332L27.1247 20.9293L26.3106 21.33C25.9104 21.5274 25.5241 21.7522 25.1543 22.0029L24.4019 22.5171L20.542 21.6771L18.374 25.4657L21.0202 28.4186L20.9565 29.3271C20.9259 29.7752 20.9259 30.2248 20.9565 30.6729L21.0202 31.5814L18.3697 34.5343L20.5399 38.3229L24.3998 37.485L25.1522 37.9971C25.522 38.2478 25.9083 38.4726 26.3085 38.67L27.1226 39.0707L28.332 42.8571H32.6723L33.8838 39.0686L34.6958 38.67C35.0955 38.473 35.4812 38.2482 35.8499 37.9971L36.6002 37.485L40.4623 38.3229L42.6303 34.5343L39.9819 31.5814L40.0457 30.6729C40.0763 30.2241 40.0763 29.7738 40.0457 29.325L39.9819 28.4164L42.6324 25.4657L40.4623 21.6771L36.6002 22.5129L35.8499 22.0029C35.4812 21.7518 35.0955 21.5269 34.6958 21.33L33.8838 20.9314L32.6701 17.1429H32.668ZM30.5 23.5714C32.1912 23.5714 33.8131 24.2487 35.0089 25.4543C36.2047 26.6599 36.8765 28.295 36.8765 30C36.8765 31.705 36.2047 33.3401 35.0089 34.5457C33.8131 35.7513 32.1912 36.4286 30.5 36.4286C28.8088 36.4286 27.1869 35.7513 25.9911 34.5457C24.7953 33.3401 24.1235 31.705 24.1235 30C24.1235 28.295 24.7953 26.6599 25.9911 25.4543C27.1869 24.2487 28.8088 23.5714 30.5 23.5714ZM30.5 25.7143C29.3726 25.7143 28.2913 26.1658 27.4941 26.9695C26.6969 27.7733 26.249 28.8634 26.249 30C26.249 31.1366 26.6969 32.2267 27.4941 33.0305C28.2913 33.8342 29.3726 34.2857 30.5 34.2857C31.6274 34.2857 32.7087 33.8342 33.5059 33.0305C34.3032 32.2267 34.751 31.1366 34.751 30C34.751 28.8634 34.3032 27.7733 33.5059 26.9695C32.7087 26.1658 31.6274 25.7143 30.5 25.7143Z" fill="#073E74"/>
</svg>
