<svg width="60" height="60" viewBox="0 0 60 60" fill="none" xmlns="http://www.w3.org/2000/svg">
<rect width="60" height="60" rx="8" fill="#96BF47"/>
<rect x="0.75" y="0.75" width="58.5" height="58.5" rx="7.25" stroke="#96BF47" stroke-width="1.5"/>
<path d="M33.47 15C33.6968 15 33.9178 15.072 34.1011 15.2056C34.2844 15.3393 34.4206 15.5276 34.49 15.7436L35.6686 19.4057C36.1636 19.6479 36.6371 19.92 37.0893 20.2264L40.8521 19.4164C41.074 19.3691 41.3052 19.3933 41.5124 19.4858C41.7195 19.5782 41.892 19.734 42.005 19.9307L44.975 25.0714C45.0884 25.268 45.1364 25.4956 45.1122 25.7213C45.0879 25.947 44.9926 26.1591 44.84 26.3271L42.2579 29.1771C42.2955 29.7236 42.2955 30.2721 42.2579 30.8186L44.84 33.6729C44.9926 33.8409 45.0879 34.053 45.1122 34.2787C45.1364 34.5044 45.0884 34.732 44.975 34.9286L42.005 40.0714C41.8917 40.2678 41.7191 40.4231 41.5119 40.5152C41.3048 40.6072 41.0738 40.6311 40.8521 40.5836L37.0893 39.7736C36.6393 40.0779 36.1636 40.3521 35.6707 40.5943L34.49 44.2564C34.4206 44.4724 34.2844 44.6607 34.1011 44.7944C33.9178 44.928 33.6968 45 33.47 45H27.53C27.3032 45 27.0822 44.928 26.8989 44.7944C26.7156 44.6607 26.5794 44.4724 26.51 44.2564L25.3336 40.5964C24.8399 40.355 24.3638 40.0793 23.9086 39.7714L20.1479 40.5836C19.926 40.6309 19.6948 40.6067 19.4876 40.5142C19.2805 40.4218 19.108 40.266 18.995 40.0693L16.025 34.9286C15.9116 34.732 15.8635 34.5044 15.8878 34.2787C15.9121 34.053 16.0074 33.8409 16.16 33.6729L18.7421 30.8186C18.7047 30.2735 18.7047 29.7265 18.7421 29.1814L16.16 26.3271C16.0074 26.1591 15.9121 25.947 15.8878 25.7213C15.8635 25.4956 15.9116 25.268 16.025 25.0714L18.995 19.9286C19.1083 19.7322 19.2809 19.5769 19.4881 19.4848C19.6952 19.3928 19.9262 19.3689 20.1479 19.4164L23.9086 20.2286C24.3629 19.9221 24.8386 19.6457 25.3336 19.4036L26.5121 15.7436C26.5813 15.5283 26.7168 15.3405 26.8993 15.2069C27.0817 15.0733 27.3017 15.0009 27.5279 15H33.4679H33.47ZM32.6857 17.1429H28.3143L27.0971 20.9293L26.2764 21.33C25.873 21.5274 25.4835 21.7522 25.1107 22.0029L24.3521 22.5171L20.4607 21.6771L18.275 25.4657L20.9429 28.4186L20.8786 29.3271C20.8478 29.7752 20.8478 30.2248 20.8786 30.6729L20.9429 31.5814L18.2707 34.5343L20.4586 38.3229L24.35 37.485L25.1086 37.9971C25.4813 38.2478 25.8708 38.4726 26.2743 38.67L27.095 39.0707L28.3143 42.8571H32.69L33.9114 39.0686L34.73 38.67C35.133 38.473 35.5218 38.2482 35.8936 37.9971L36.65 37.485L40.5436 38.3229L42.7293 34.5343L40.0593 31.5814L40.1236 30.6729C40.1545 30.2241 40.1545 29.7738 40.1236 29.325L40.0593 28.4164L42.7314 25.4657L40.5436 21.6771L36.65 22.5129L35.8936 22.0029C35.5218 21.7518 35.133 21.5269 34.73 21.33L33.9114 20.9314L32.6879 17.1429H32.6857ZM30.5 23.5714C32.205 23.5714 33.8401 24.2487 35.0457 25.4543C36.2513 26.6599 36.9286 28.295 36.9286 30C36.9286 31.705 36.2513 33.3401 35.0457 34.5457C33.8401 35.7513 32.205 36.4286 30.5 36.4286C28.795 36.4286 27.1599 35.7513 25.9543 34.5457C24.7487 33.3401 24.0714 31.705 24.0714 30C24.0714 28.295 24.7487 26.6599 25.9543 25.4543C27.1599 24.2487 28.795 23.5714 30.5 23.5714ZM30.5 25.7143C29.3634 25.7143 28.2733 26.1658 27.4695 26.9695C26.6658 27.7733 26.2143 28.8634 26.2143 30C26.2143 31.1366 26.6658 32.2267 27.4695 33.0305C28.2733 33.8342 29.3634 34.2857 30.5 34.2857C31.6366 34.2857 32.7267 33.8342 33.5305 33.0305C34.3342 32.2267 34.7857 31.1366 34.7857 30C34.7857 28.8634 34.3342 27.7733 33.5305 26.9695C32.7267 26.1658 31.6366 25.7143 30.5 25.7143Z" fill="#073E74"/>
</svg>
