<svg width="60" height="60" viewBox="0 0 60 60" fill="none" xmlns="http://www.w3.org/2000/svg">
<rect width="60" height="60" rx="8" fill="#96BF47"/>
<rect x="0.75" y="0.75" width="58.5" height="58.5" rx="7.25" stroke="#96BF47" stroke-width="1.5"/>
<path d="M44.9922 34.0974C44.9218 34.3556 44.867 34.6217 44.7809 34.8799C44.4523 35.8501 43.8107 36.5857 43.0282 37.2116C41.7137 38.268 40.1878 38.9096 38.5994 39.4104C36.7059 40.0129 34.7653 40.3885 32.7857 40.5449C32.2302 40.5919 31.8389 40.2711 31.7763 39.7547C31.7215 39.2774 32.0658 38.8783 32.6057 38.8C32.8874 38.7609 33.1691 38.7453 33.4508 38.714C35.8373 38.4166 38.1534 37.8924 40.3287 36.8282C41.1112 36.4448 41.8467 35.9832 42.4492 35.3415C43.4899 34.2226 43.4977 33.0724 42.4805 31.93C41.9171 31.304 41.2285 30.8502 40.4852 30.4668C40.3052 30.3729 40.2348 30.2712 40.2426 30.0677C40.2583 29.5356 40.2504 28.9957 40.2504 28.3854C42.4101 29.4574 44.4445 30.5528 45 33.1585C44.9922 33.4714 44.9922 33.7844 44.9922 34.0974Z" fill="#073E74"/>
<path d="M22.4102 21.2102C22.9657 20.8894 23.4743 20.592 23.9908 20.2947C25.7983 19.254 27.6058 18.2133 29.4054 17.1648C29.7575 16.9614 30.094 16.9379 30.4539 17.1414C32.7857 18.4637 35.1174 19.7861 37.4492 21.1085C37.4805 21.1241 37.5118 21.1554 37.5822 21.2024C37.4805 21.265 37.4022 21.3276 37.3083 21.3745C34.9453 22.7438 32.5901 24.1131 30.227 25.4825C30.1018 25.5529 30.0001 25.6233 29.8358 25.5216C27.4101 24.1131 24.9767 22.7125 22.5432 21.3041C22.5119 21.2884 22.4806 21.2571 22.4102 21.2102Z" fill="#073E74"/>
<path d="M30.8921 35.8267C30.8843 35.7249 30.8765 35.6389 30.8765 35.5528C30.8765 32.8298 30.8765 30.1068 30.8765 27.3838C30.8765 27.2117 30.9078 27.1022 31.0721 27.0083C33.4899 25.6155 35.8999 24.2149 38.3099 22.8221C38.349 22.7986 38.396 22.7751 38.4664 22.7438C38.4742 22.8142 38.4899 22.8768 38.4899 22.9394C38.4899 25.5842 38.4899 28.2289 38.4899 30.8737C38.4899 31.2492 38.3569 31.5387 38.0282 31.7265C35.6886 33.0802 33.3569 34.4261 31.0173 35.7797C30.986 35.7954 30.9469 35.8032 30.8921 35.8267Z" fill="#073E74"/>
<path d="M21.526 22.7595C21.6512 22.8221 21.7294 22.869 21.8155 22.916C24.1629 24.2696 26.5103 25.6233 28.8577 26.977C29.0455 27.0865 29.1237 27.2039 29.1237 27.4308C29.1159 30.1303 29.1159 32.8376 29.1159 35.5372C29.1159 35.6232 29.1159 35.7093 29.1159 35.8423C29.0142 35.7954 28.9359 35.7641 28.8655 35.7171C26.5964 34.4104 24.3272 33.0959 22.0502 31.7891C21.6903 31.5857 21.5025 31.304 21.5025 30.8893C21.5025 28.2367 21.5025 25.5842 21.5025 22.9238C21.5103 22.8847 21.5182 22.8455 21.526 22.7595Z" fill="#073E74"/>
<path d="M22.4493 39.8094C21.4869 39.4573 20.5635 39.1522 19.6715 38.7766C18.2787 38.1819 16.9955 37.4073 16.0174 36.2101C14.6403 34.5199 14.6637 32.5951 16.0722 30.9362C17.0581 29.7782 18.3257 29.0427 19.7498 28.4167C19.7498 28.9488 19.7263 29.4417 19.7576 29.9269C19.7811 30.2477 19.6637 30.4042 19.382 30.545C18.6465 30.9206 17.9658 31.3744 17.4337 32.0161C16.5338 33.088 16.5495 34.1757 17.465 35.232C18.1144 35.9832 18.9282 36.5231 19.828 36.9143C20.7983 37.3368 21.792 37.6968 22.8171 38.1036C22.9579 37.4777 23.0831 36.9378 23.1926 36.39C23.2709 36.0066 23.443 35.7171 23.8343 35.5998C24.2333 35.4824 24.5307 35.6389 24.8045 35.9127C25.8374 36.9691 26.8702 38.0176 27.9031 39.0661C28.4586 39.6373 28.3178 40.3337 27.5823 40.631C26.1817 41.1944 24.781 41.7499 23.3804 42.3133C23.0361 42.4542 22.7075 42.4463 22.418 42.2038C22.1207 41.9534 22.0424 41.6326 22.1285 41.257C22.2537 40.7719 22.3476 40.2789 22.4493 39.8094Z" fill="#073E74"/>
</svg>
