<svg width="48" height="48" viewBox="0 0 48 48" fill="none" xmlns="http://www.w3.org/2000/svg">
<rect width="48" height="48" rx="8" fill="#073E74"/>
<path d="M11.2287 9C19.7398 9 28.2602 9 36.7713 9C36.7988 9.00917 36.8264 9.0367 36.8539 9.0367C38.0737 9.21101 39 10.2569 39 11.5963C39 19.8716 39 28.1376 38.9908 36.4128C38.9908 36.7982 38.8991 37.2202 38.734 37.5688C38.2571 38.5688 37.4133 39 36.3219 39C30.0303 39 23.7478 39 17.4561 39C15.5118 39 13.5674 39 11.6322 39C10.9902 39 10.4032 38.8257 9.89881 38.4037C9.3852 37.9725 9.13757 37.4128 9 36.7706C9 28.2569 9 19.7339 9 11.2202C9.17426 10.8165 9.29349 10.3761 9.52278 10.0092C9.90798 9.40367 10.5408 9.13761 11.2287 9ZM30.498 18.7339C29.9019 19.3303 29.3241 19.9174 28.6912 20.5505C29.4158 21.2661 30.1495 22 30.8924 22.7339C26.2975 22.7339 21.7025 22.7339 17.0984 22.7339C17.0801 22.7156 17.0709 22.6881 17.0526 22.6697C17.7955 21.9358 18.5384 21.2018 19.2354 20.5138C18.6393 19.9174 18.0706 19.3394 17.4745 18.7431C17.4378 18.7798 17.3828 18.8532 17.3277 18.9174C15.9795 20.2752 14.6221 21.6239 13.2739 22.9817C12.5861 23.6697 12.5861 24.3578 13.2739 25.0459C14.613 26.3853 15.9703 27.7431 17.3186 29.0917C17.3828 29.156 17.4561 29.2202 17.5112 29.2661C18.0981 28.6697 18.6759 28.0917 19.3088 27.4587C18.5842 26.7431 17.8505 26 17.1168 25.2661C21.7025 25.2661 26.3066 25.2661 31.0024 25.2661C30.1954 26.0642 29.4525 26.7982 28.7646 27.4954C29.3516 28.0917 29.9294 28.6697 30.5255 29.2661C30.5714 29.211 30.6448 29.1284 30.7181 29.0459C31.9838 27.7798 33.2403 26.5138 34.506 25.2569C34.6252 25.1376 34.7444 25.0275 34.8545 24.8991C35.3773 24.3394 35.3773 23.6422 34.8545 23.0917C34.671 22.8899 34.4693 22.7064 34.2767 22.5138C33.0202 21.2569 31.7545 19.9908 30.498 18.7339Z" fill="white"/>
</svg>
