<svg width="20" height="20" viewBox="0 0 20 20" fill="none" xmlns="http://www.w3.org/2000/svg">
<path d="M6.75014 9.37497C6.75014 9.04345 6.88183 8.72551 7.11625 8.49109C7.35067 8.25667 7.66861 8.12497 8.00014 8.12497H9.25013C9.58166 8.12497 9.8996 8.25667 10.134 8.49109C10.3684 8.72551 10.5001 9.04345 10.5001 9.37497V10.5475L11.0001 12.5462C11.0624 12.7963 11.0459 13.0595 10.9528 13.2998C10.8597 13.5402 10.6946 13.7459 10.4801 13.8887L9.31763 14.6637C9.11222 14.8008 8.87082 14.8739 8.62389 14.8739C8.37695 14.8739 8.13555 14.8008 7.93013 14.6637L6.76888 13.8887C6.55461 13.7457 6.38977 13.5399 6.29691 13.2996C6.20405 13.0593 6.18772 12.7962 6.25014 12.5462L6.75014 10.5475V9.37497ZM9.25013 9.37497H8.00014V10.5475C8.00012 10.6499 7.98753 10.7519 7.96263 10.8512L7.46264 12.8487L8.62514 13.6237L9.78638 12.8487L9.28638 10.8512C9.26191 10.7518 9.24974 10.6498 9.25013 10.5475V9.37497Z" fill="white"/>
<path d="M18 5.625V17.5C18 18.163 17.7366 18.7989 17.2678 19.2678C16.7989 19.7366 16.163 20 15.5 20H5.5C4.83696 20 4.20107 19.7366 3.73223 19.2678C3.26339 18.7989 3 18.163 3 17.5V2.5C3 1.83696 3.26339 1.20107 3.73223 0.732233C4.20107 0.263392 4.83696 0 5.5 0L12.375 0L18 5.625ZM14.25 5.625C13.7527 5.625 13.2758 5.42746 12.9242 5.07583C12.5725 4.72419 12.375 4.24728 12.375 3.75V1.25H9.875V2.5H8.625V3.75H9.875V5H8.625V6.25H9.875V7.5H8V6.25H6.75V5H8V3.75H6.75V2.5H8V1.25H5.5C5.16848 1.25 4.85054 1.3817 4.61612 1.61612C4.3817 1.85054 4.25 2.16848 4.25 2.5V17.5C4.25 17.8315 4.3817 18.1495 4.61612 18.3839C4.85054 18.6183 5.16848 18.75 5.5 18.75H15.5C15.8315 18.75 16.1495 18.6183 16.3839 18.3839C16.6183 18.1495 16.75 17.8315 16.75 17.5V5.625H14.25Z" fill="white"/>
</svg>
